<svg xmlns="http://www.w3.org/2000/svg" xmlns:xlink= "http://www.w3.org/1999/xlink" width="195" height="36" viewBox="0 0 130 24" fill="none"><path d="M12.3376 14.41C11.5524 14.9059 10.6147 15.1845 9.6148 15.1845C8.61493 15.1845 7.6772 14.9004 6.89199 14.41C6.46832 14.1481 5.9938 14.6886 6.3158 15.0675C7.1123 15.9925 8.29859 16.572 9.6148 16.572C10.931 16.572 12.1173 15.987 12.9138 15.0675C13.2471 14.6886 12.7613 14.1425 12.3376 14.41Z" fill="#2d55fb"></path><path d="M11.9767 3.38797C11.5304 3.32668 11.0672 3.29324 10.5984 3.29324V3.2821C10.5927 3.2821 10.5758 3.2821 10.5701 3.2821C10.5532 2.62457 10.3498 2.01718 10.0052 1.50453C9.62109 0.936151 9.06749 0.484792 8.41786 0.228465C8.03938 0.0835849 7.6157 0 7.17508 0C6.17521 0 5.28267 0.429069 4.66693 1.10332H4.65564C4.65564 1.10332 -0.90296 6.45832 0.125154 14.6886C0.164697 15.0954 0.232485 15.4966 0.322868 15.8867C0.322868 15.8867 0.322868 15.8867 0.322868 15.8923C1.33404 20.4281 5.35046 23.8496 10.1973 23.9889C16.1005 24.1616 21.0151 19.3861 20.9473 13.524C20.8908 8.35292 17.01 4.09566 11.9767 3.38797ZM6.03399 2.42396C6.03399 2.42396 7.06775 1.28163 7.99418 2.20664C7.99983 2.21221 7.99983 2.22336 8.01113 2.22336C8.12976 2.35709 8.90932 3.28767 7.57051 4.3297C6.86439 4.88693 6.29384 5.57232 5.9436 6.40817C6.47461 5.92338 7.10729 5.54446 7.80212 5.32157C8.38396 5.17669 8.99405 5.10425 9.63239 5.10425C9.79056 5.10425 9.94873 5.10982 10.1069 5.12097C10.3837 5.13768 10.6662 5.17112 10.9373 5.2157C14.4905 5.82865 17.1907 8.90458 17.1907 12.599C17.1907 16.7393 13.8013 20.0994 9.63239 20.0994C5.46344 20.0994 2.0684 16.7337 2.0684 12.599C2.0684 12.5322 2.0684 12.4709 2.0684 12.404C2.0684 12.365 2.0684 12.3204 2.0684 12.2814C2.13619 9.95775 2.72369 7.76225 3.71791 5.80079C3.85913 5.5166 4.01165 5.24356 4.16982 4.97609C4.70083 4.06222 5.32787 3.20966 6.03399 2.42396Z" fill="#2d55fb"></path><path d="M26.6978 18.6341V6.1521H32.8269C33.9454 6.1521 34.8718 6.47529 35.6118 7.13283C36.3519 7.77365 36.7303 8.57606 36.7303 9.55679C36.7303 10.571 36.3123 11.4124 35.4989 12.0699C36.6738 12.7664 37.2726 13.7639 37.2726 15.0678C37.2726 16.082 36.8772 16.9234 36.0977 17.6199C35.3181 18.2998 34.3465 18.6341 33.1884 18.6341H26.6978ZM29.1212 8.36431V11.1282H32.8269C33.6234 11.1282 34.2165 10.5375 34.2165 9.7351C34.2165 8.94941 33.6178 8.36431 32.8269 8.36431H29.1212ZM29.1212 13.3237V16.4275H33.1884C34.0753 16.4275 34.7419 15.7476 34.7419 14.8784C34.7419 14.0035 34.0753 13.3293 33.1884 13.3293H29.1212V13.3237Z" fill="#080d2b"></path><path d="M38.5037 18.6341V6.1521H40.7633V18.6341H38.5037Z" fill="#080d2b"></path><path d="M42.2437 9.36176H44.5032V14.6387C44.5032 15.8535 45.4071 16.7785 46.6386 16.7785C47.8475 16.7785 48.7739 15.8535 48.7739 14.6387V9.36176H51.0335V18.6341H48.7739V17.5085C48.0847 18.4335 47.147 18.9016 45.955 18.9016C44.8874 18.9016 44.0005 18.5617 43.3 17.8651C42.5995 17.1686 42.2493 16.316 42.2493 15.2796V9.36176H42.2437Z" fill="#080d2b"></path><path d="M54.5013 14.8224C54.8459 16.0372 55.9305 16.8563 57.2467 16.8563C58.1675 16.8563 58.9075 16.5331 59.4498 15.8756L61.6359 16.4997C60.766 17.9819 59.1391 18.9069 57.241 18.9069C55.7949 18.9069 54.586 18.4444 53.6087 17.5138C52.6484 16.5665 52.1626 15.4075 52.1626 14.0033C52.1626 12.5935 52.6315 11.4344 53.5748 10.5094C54.5352 9.56211 55.7102 9.09961 57.0998 9.09961C58.4895 9.09961 59.6644 9.56211 60.6078 10.5094C61.5681 11.4567 62.037 12.6157 62.037 14.0033C62.037 14.1983 62.0201 14.4658 61.9636 14.8224H54.5013ZM59.704 13.0894C59.3425 11.9303 58.2917 11.1447 57.0659 11.1447C55.8909 11.1447 54.8628 11.9303 54.5182 13.0894H59.704Z" fill="#080d2b"></path><path d="M68.9467 6.1521C70.1951 6.1521 71.2232 6.54216 72.0536 7.31114C72.9009 8.08012 73.319 9.03856 73.319 10.1809C73.319 11.8024 72.3812 13.1788 70.9125 13.8196L73.8048 18.6341H71.1102L68.4552 14.232H65.5064V18.6341H63.083V6.1521H68.9467ZM65.5121 8.36431V12.0198H68.9467C70.0143 12.0198 70.7882 11.2341 70.7882 10.1809C70.7882 9.12772 70.0087 8.36431 68.9467 8.36431H65.5121Z" fill="#080d2b"></path><path d="M76.3753 14.8224C76.7199 16.0372 77.8045 16.8563 79.1207 16.8563C80.0415 16.8563 80.7815 16.5331 81.3238 15.8756L83.51 16.4997C82.64 17.9819 81.0131 18.9069 79.1151 18.9069C77.6689 18.9069 76.46 18.4444 75.4828 17.5138C74.5224 16.5665 74.0366 15.4075 74.0366 14.0033C74.0366 12.5935 74.5055 11.4344 75.4489 10.5094C76.4092 9.56211 77.5842 9.09961 78.9738 9.09961C80.3635 9.09961 81.5385 9.56211 82.4819 10.5094C83.4422 11.4567 83.911 12.6157 83.911 14.0033C83.911 14.1983 83.8941 14.4658 83.8376 14.8224H76.3753ZM81.578 13.0894C81.2165 11.9303 80.1658 11.1447 78.9399 11.1447C77.765 11.1447 76.7368 11.9303 76.3922 13.0894H81.578Z" fill="#080d2b"></path><path d="M91.8816 12.822C91.4636 11.897 90.5597 11.3231 89.4977 11.3231C88.7577 11.3231 88.125 11.5738 87.6166 12.092C87.1082 12.6103 86.8596 13.2344 86.8596 13.9978C86.8596 14.7612 87.1138 15.3909 87.6166 15.9035C88.1194 16.4162 88.7577 16.6725 89.4977 16.6725C90.5654 16.6725 91.4692 16.1041 91.8816 15.1735L94.1412 15.8311C93.4181 17.6867 91.6443 18.8959 89.4977 18.8959C88.0685 18.8959 86.8935 18.4334 85.9389 17.5028C85.0011 16.5555 84.5266 15.3964 84.5266 13.9922C84.5266 12.5824 84.9955 11.4234 85.9389 10.4984C86.8992 9.55107 88.0742 9.08856 89.4977 9.08856C91.65 9.08856 93.4181 10.3033 94.1412 12.1533L91.8816 12.822Z" fill="#080d2b"></path><path d="M97.0894 14.8224C97.434 16.0372 98.5186 16.8563 99.8348 16.8563C100.756 16.8563 101.496 16.5331 102.038 15.8756L104.224 16.4997C103.354 17.9819 101.727 18.9069 99.8292 18.9069C98.383 18.9069 97.1741 18.4444 96.1969 17.5138C95.2365 16.5665 94.7507 15.4075 94.7507 14.0033C94.7507 12.5935 95.2196 11.4344 96.163 10.5094C97.1233 9.56211 98.2983 9.09961 99.6879 9.09961C101.078 9.09961 102.253 9.56211 103.196 10.5094C104.156 11.4567 104.625 12.6157 104.625 14.0033C104.625 14.1983 104.608 14.4658 104.552 14.8224H97.0894ZM102.298 13.0894C101.936 11.9303 100.886 11.1447 99.6597 11.1447C98.4847 11.1447 97.4566 11.9303 97.112 13.0894H102.298Z" fill="#080d2b"></path><path d="M105.281 7.11591C105.281 6.3135 105.896 5.70612 106.71 5.70612C107.523 5.70612 108.156 6.3135 108.156 7.11591C108.156 7.91833 107.557 8.54243 106.71 8.54243C105.896 8.54243 105.281 7.91833 105.281 7.11591ZM105.586 18.6339V9.36156H107.845V18.6339H105.586Z" fill="#080d2b"></path><path d="M109.325 22.6461V9.36165H111.585V10.0916C112.415 9.43409 113.359 9.09418 114.421 9.09418C115.72 9.09418 116.804 9.55668 117.691 10.504C118.578 11.429 119.013 12.588 119.013 13.9978C119.013 15.4076 118.578 16.5667 117.691 17.5084C116.804 18.4334 115.72 18.9015 114.421 18.9015C113.353 18.9015 112.415 18.5616 111.585 17.904V22.6461H109.325ZM114.138 11.3231C113.432 11.3231 112.839 11.5739 112.347 12.0921C111.862 12.6103 111.624 13.2344 111.624 13.9978C111.624 14.7612 111.862 15.3909 112.347 15.9036C112.833 16.4218 113.432 16.6725 114.138 16.6725C114.844 16.6725 115.437 16.4218 115.929 15.9036C116.42 15.3853 116.669 14.7612 116.669 13.9978C116.669 13.2344 116.415 12.6047 115.929 12.0921C115.443 11.5794 114.839 11.3231 114.138 11.3231Z" fill="#080d2b"></path><path d="M119.358 9.36174H120.697V7.54517H122.957V9.36174H125.29V11.3065H122.957V15.391C122.957 16.0318 123.443 16.5166 124.115 16.5166H125.29V18.6397H123.9C122.996 18.6397 122.239 18.3555 121.624 17.8038C121.008 17.2522 120.703 16.5556 120.703 15.7198V11.3176H119.364V9.36174H119.358Z" fill="#080d2b"></path><path d="M126.47 7.14917C126.069 6.75353 125.866 6.27431 125.866 5.71151C125.866 5.1487 126.069 4.66949 126.47 4.27385C126.877 3.87822 127.363 3.67761 127.933 3.67761C128.504 3.67761 128.99 3.87822 129.391 4.27385C129.792 4.66949 129.995 5.1487 129.995 5.71151C129.995 6.27431 129.792 6.75353 129.391 7.14917C128.99 7.5448 128.504 7.74541 127.933 7.74541C127.363 7.74541 126.877 7.5448 126.47 7.14917ZM126.679 4.46888C126.335 4.80879 126.159 5.22672 126.159 5.71151C126.159 6.1963 126.335 6.60308 126.679 6.94856C127.029 7.28848 127.447 7.46122 127.939 7.46122C128.43 7.46122 128.843 7.28848 129.193 6.94856C129.538 6.60865 129.713 6.1963 129.713 5.71151C129.713 5.22672 129.538 4.81994 129.193 4.47445C128.848 4.12897 128.43 3.95623 127.939 3.95623C127.447 3.95623 127.024 4.12897 126.679 4.46888ZM127.063 6.79254V4.61933H128.091C128.317 4.61933 128.509 4.6862 128.656 4.83108C128.815 4.97039 128.888 5.13756 128.888 5.34931C128.888 5.62792 128.73 5.86753 128.481 5.9957L128.961 6.79254H128.442L128.018 6.07928H127.532V6.79254H127.063ZM127.532 5.04283V5.65579H128.091C128.272 5.65579 128.402 5.52762 128.402 5.34931C128.402 5.17099 128.272 5.04283 128.091 5.04283H127.532Z" fill="#080d2b"></path></svg>